Coordinates
version=1
nRows=6
nColumns=36
inDegrees=yes

Units are S.I. units (second, meters, Newtons, ...)
If the header above contains a line with 'inDegrees', this indicates whether rotational values are in degrees (yes) or radians (no).

endheader
time	pelvis_tilt	pelvis_list	pelvis_rotation	pelvis_tx	pelvis_ty	pelvis_tz	hip_flexion_r	hip_adduction_r	hip_rotation_r	knee_angle_r	knee_angle_r_beta	ankle_angle_r	subtalar_angle_r	mtp_angle_r	hip_flexion_l	hip_adduction_l	hip_rotation_l	knee_angle_l	knee_angle_l_beta	ankle_angle_l	subtalar_angle_l	mtp_angle_l	lumbar_extension	lumbar_bending	lumbar_rotation	arm_flex_r	arm_add_r	arm_rot_r	elbow_flex_r	pro_sup_r	arm_flex_l	arm_add_l	arm_rot_l	elbow_flex_l	pro_sup_l
      1.29000000	    -27.41243339	      1.55509727	      1.22970819	     -0.32516218	      0.74557631	     -0.55587502	     80.14901126	     -6.05924281	      3.95849401	     77.27196842	      1.34865027	     27.35106470	     -5.71301007	     -7.39215622	     76.02398232	     -4.34864846	      2.70402761	     75.30812317	      1.31437470	     24.89935265	    -12.48678295	     -7.39215622	    -33.62616894	     -1.80775171	     -1.30600635	     90.97208609	      3.87814695	     12.89768582	     97.80538619	    100.47092062	     93.36240203	     -3.93510228	     22.49481708	     94.85484540	    112.09849838
      1.30000000	    -26.49962144	      1.71827654	      1.15857680	     -0.31892674	      0.75145686	     -0.55546933	     78.41709471	     -6.17490352	      3.87622482	     76.82505040	      1.34085008	     27.29672268	     -5.81368116	     -7.39316617	     74.10349348	     -4.25068389	      2.62462277	     74.65183729	      1.30292035	     24.84528265	    -12.61313211	     -7.39316617	    -33.36390463	     -1.61182721	     -1.16011129	     88.68701867	      2.95054767	     13.06763107	    100.73714776	    100.62350182	     90.81140020	     -4.89531080	     22.80673011	     98.48199589	    112.42064724
      1.31000000	    -25.52464693	      2.13503920	      1.13404479	     -0.31219289	      0.75822239	     -0.55526784	     76.56602735	     -6.50060951	      3.94012673	     76.28937726	      1.33150082	     27.31447861	     -5.84269229	     -7.39517417	     71.89731333	     -3.94477211	      2.28566339	     73.72034490	      1.28666274	     24.64461607	    -12.99888338	     -7.39517417	    -32.99083511	     -1.61408448	     -1.28757291	     85.98057458	      1.79917471	     13.33061258	    103.88317987	    100.79074943	     87.76386713	     -6.32902981	     23.25025971	    102.61444337	    112.69191328
      1.32000000	    -24.50008804	      2.40393673	      1.07368509	     -0.30535113	      0.76578786	     -0.55465102	     74.49532998	     -6.68977333	      3.83665242	     75.50031788	      1.31772913	     27.22596668	     -5.88946328	     -7.39603126	     69.57384880	     -3.72956287	      2.13050763	     72.62699867	      1.26758025	     24.38961608	    -13.10712126	     -7.39603126	    -32.47658251	     -1.56983284	     -1.13543401	     82.81693824	      0.24391407	     13.41474971	    107.33337373	    101.03748450	     84.36027015	     -7.78951317	     23.82889260	    106.54931253	    113.02989513
      1.33000000	    -23.74086563	      2.55937851	      0.95072016	     -0.29842925	      0.77343606	     -0.55337949	     72.63821728	     -6.66260364	      3.67248469	     74.62149038	      1.30239070	     26.89109825	     -6.15230346	     -7.39745094	     67.53401966	     -3.72158308	      1.97508419	     71.47068713	      1.24739881	     23.84420870	    -13.40603408	     -7.39745094	    -31.44228510	     -1.47746916	     -0.98828236	     79.14064423	     -1.25667766	     13.29446960	    110.80569294	    101.21213350	     80.29891721	     -9.71125608	     24.37177929	    110.87735023	    113.31580175
      1.34000000	    -23.02748676	      2.74863446	      0.82166897	     -0.29131701	      0.78225849	     -0.55190734	     70.68445328	     -6.61466564	      3.52019477	     73.45099521	      1.28196171	     26.02095208	     -6.81000832	     -7.40073775	     65.38118294	     -3.73431384	      1.72018236	     69.96181849	      1.22106408	     22.73424098	    -13.99562799	     -7.40073775	    -30.27165063	     -1.40375943	     -1.13690049	     75.19798296	     -2.40381037	     13.08126134	    113.83640988	    101.20967184	     75.67920073	    -12.25341148	     24.84445936	    115.38294042	    113.40995850
